# xmcd
#
# Track frame offsets: 
#        150
#        9985
#        19002
#        27196
#        38430
#        50285
#        59565
#        73323
#        86524
#        99999
#        110634
#        122524
#        132177
#        145188
#        155252
#        167395
#
# Disc length: 2425 seconds
#
# Revision: 1
# Processed by: cddbd v1.5.2PL0 Copyright (c) Steve Scherf et al.
# Submitted via: ExactAudioCopyFreeDBPlugin 1.0
#
DISCID=c3097710
DTITLE=Various Artist - THE COUNTRY CLUB COLLECTION - HONKY TONK COUNTRY
DYEAR=2006
DGENRE=Country
TTITLE0=HANK WILLIAMS - Honky Tonk Blues
TTITLE1=WEBB PIERCE - Honky Tonk Song
TTITLE2=GEORGE JONES - I´m A One Woman Man
TTITLE3=RAY PRICE - Crazy Arms
TTITLE4=ERNEST TUBB - Walking The Floor Over You
TTITLE5=FARON YOUNG - Backtrack
TTITLE6=RED FOLEY - Freight Train Boogie
TTITLE7=KITTY WELLS - One By One
TTITLE8=MICKEY GILLEY - Dont The Girls All Get Prettier At Closing Tim
TTITLE8=e
TTITLE9=KITTY WELLS - Unloved, Unwanted
TTITLE10=GEORGE JONES - Let Him Know
TTITLE11=WEBB PIERCE - In The Jailhouse Now
TTITLE12=RAY PRICE - City Lights
TTITLE13=FARON YOUNG - Congratulations
TTITLE14=HANK WILLIAMS - Your Cheatin´ Heart
TTITLE15=RED FOLEY - Old Shep
EXTD=
EXTT0=
EXTT1=
EXTT2=
EXTT3=
EXTT4=
EXTT5=
EXTT6=
EXTT7=
EXTT8=
EXTT9=
EXTT10=
EXTT11=
EXTT12=
EXTT13=
EXTT14=
EXTT15=
PLAYORDER=
